<svg width="45" height="44" viewBox="0 0 45 44" fill="none" xmlns="http://www.w3.org/2000/svg">
<g id="apple" clip-path="url(#clip0_122_471)">
<g id="Group">
<g id="Group_2">
<path id="Vector" d="M31.1834 0C28.8376 0.162249 26.0959 1.66374 24.4982 3.61898C23.0407 5.39272 21.8417 8.0272 22.3092 10.5874C24.8722 10.6672 27.5204 9.12995 29.0549 7.14171C30.4904 5.29097 31.5766 2.67298 31.1834 0Z" fill="#444B59"/>
</g>
</g>
<g id="Group_3">
<g id="Group_4">
<path id="Vector_2" d="M40.4536 14.7619C38.2013 11.9377 35.0361 10.2987 32.0469 10.2987C28.1006 10.2987 26.4314 12.1879 23.6897 12.1879C20.8627 12.1879 18.7149 10.3042 15.3022 10.3042C11.95 10.3042 8.38049 12.3529 6.11726 15.8564C2.93552 20.7899 3.48002 30.0656 8.63624 37.9663C10.4815 40.7933 12.9455 43.9723 16.1684 43.9998C19.0367 44.0273 19.8452 42.16 23.7309 42.1408C27.6166 42.1188 28.3536 44.0245 31.2164 43.9943C34.4421 43.9695 37.0408 40.4468 38.8861 37.6198C40.2088 35.5931 40.7011 34.5728 41.7268 32.2848C34.2661 29.4441 33.0698 18.8347 40.4536 14.7619Z" fill="#444B59"/>
</g>
</g>
</g>
<defs>
<clipPath id="clip0_122_471">
<rect width="44" height="44" fill="white" transform="translate(0.935303)"/>
</clipPath>
</defs>
</svg>
