<svg width="39" height="38" viewBox="0 0 39 38" fill="none" xmlns="http://www.w3.org/2000/svg">
<g id="google" clip-path="url(#clip0_122_406)">
<path id="Vector" d="M8.9216 22.9639L7.59888 27.9018L2.76434 28.0041C1.31952 25.3243 0.5 22.2582 0.5 19C0.5 15.8493 1.26623 12.8782 2.62444 10.2621H2.62548L6.92957 11.0512L8.81502 15.3294C8.4204 16.4799 8.20532 17.7149 8.20532 19C8.20547 20.3947 8.45811 21.731 8.9216 22.9639Z" fill="#FBBB00"/>
<path id="Vector_2" d="M38.168 15.4505C38.3862 16.5999 38.5 17.7869 38.5 19C38.5 20.3602 38.357 21.6871 38.0845 22.967C37.1596 27.3224 34.7428 31.1255 31.3949 33.8169L31.3938 33.8158L25.9726 33.5392L25.2053 28.7495C27.4268 27.4467 29.163 25.4078 30.0775 22.967H19.9177V15.4505H30.2257H38.168Z" fill="#518EF8"/>
<path id="Vector_3" d="M31.3938 33.8158L31.3948 33.8169C28.1388 36.434 24.0026 38 19.5 38C12.2643 38 5.97349 33.9557 2.76434 28.0041L8.92161 22.9639C10.5261 27.2462 14.6571 30.2946 19.5 30.2946C21.5816 30.2946 23.5318 29.7319 25.2052 28.7495L31.3938 33.8158Z" fill="#28B446"/>
<path id="Vector_4" d="M31.6277 4.37416L25.4725 9.41331C23.7406 8.33076 21.6934 7.70539 19.5001 7.70539C14.5475 7.70539 10.3393 10.8936 8.81517 15.3294L2.62555 10.2621H2.62451C5.78667 4.16538 12.1569 0 19.5001 0C24.1102 0 28.3371 1.64216 31.6277 4.37416Z" fill="#F14336"/>
</g>
<defs>
<clipPath id="clip0_122_406">
<rect width="38" height="38" fill="white" transform="translate(0.5)"/>
</clipPath>
</defs>
</svg>
